<svg width="1236" height="247" viewBox="0 0 1236 247" fill="none" xmlns="http://www.w3.org/2000/svg">
<path d="M1177.82 85.5586L1201.82 71.6582C1204.56 71.333 1207.31 71.1704 1210.06 71.1704C1219.11 71.1704 1227.76 72.9588 1236 76.5355L1229.7 111.165C1224.69 107.263 1219.11 104.906 1212.97 104.093C1206.83 103.28 1201.17 103.93 1196 106.044C1190.99 107.995 1186.7 111.734 1183.15 117.262C1179.59 122.627 1177.82 129.13 1177.82 136.771V206.03H1144.85V73.1214H1177.82V85.5586Z" fill="black"/>
<path d="M1133.53 73.1204L1090.14 193.835C1089.49 195.624 1088.6 198.062 1087.47 201.151C1086.34 204.24 1085.29 207.085 1084.32 209.687C1083.51 212.288 1082.62 214.727 1081.65 217.003C1077.77 227.083 1072.52 234.561 1065.89 239.439C1059.43 244.479 1051.19 246.999 1041.17 246.999H1003.83V213.345H1036.8C1041 213.345 1043.91 212.45 1045.53 210.662C1047.31 209.036 1048.92 206.191 1050.38 202.127L1003.83 73.1204H1038.98L1039.95 76.0468L1052.08 109.213L1068.8 155.548L1090.38 95.3124L1098.38 73.1204H1133.53Z" fill="black"/>
<path d="M905.072 85.5573L929.072 71.6568C931.82 71.3317 934.567 71.1691 937.315 71.1691C955.255 71.1691 970.609 77.591 983.377 90.4347C996.144 103.116 1002.53 118.561 1002.53 136.77V206.028H969.316V136.77C969.316 127.828 966.164 120.187 959.861 113.846C953.719 107.505 946.204 104.335 937.315 104.335C928.426 104.335 920.83 107.505 914.526 113.846C908.223 120.187 905.072 127.828 905.072 136.77V206.028H872.101V32.1501H905.072V85.5573Z" fill="black"/>
<path d="M812.364 164.572C819.313 157.744 822.788 149.452 822.788 139.697C822.788 129.943 819.313 121.651 812.364 114.823C805.576 107.832 797.333 104.337 787.636 104.337C777.939 104.337 769.615 107.832 762.666 114.823C755.878 121.651 752.484 129.943 752.484 139.697C752.484 149.452 755.878 157.744 762.666 164.572C769.615 171.4 777.939 174.814 787.636 174.814C797.333 174.814 805.576 171.4 812.364 164.572ZM835.637 91.1676C849.051 104.499 855.759 120.676 855.759 139.697C855.759 158.557 849.051 174.733 835.637 188.227C822.384 201.559 806.384 208.224 787.636 208.224C783.595 208.224 779.555 207.818 775.514 207.005L752.484 193.836V247H719.513V73.1214H752.484V85.5586L775.514 72.1459C779.555 71.4956 783.595 71.1704 787.636 71.1704C806.384 71.1704 822.384 77.8361 835.637 91.1676Z" fill="black"/>
<path d="M586.894 91.1676C600.308 77.8361 616.389 71.1704 635.137 71.1704C653.885 71.1704 669.885 77.8361 683.138 91.1676C696.553 104.499 703.26 120.676 703.26 139.697C703.26 143.599 702.937 147.501 702.29 151.403H602.167C604.591 158.394 608.793 164.084 614.773 168.474C620.753 172.701 627.541 174.814 635.137 174.814C646.935 174.814 656.309 170.1 663.259 160.67H700.108C695.583 174.652 687.34 186.114 675.38 195.056C663.582 203.835 650.168 208.224 635.137 208.224C616.389 208.224 600.308 201.559 586.894 188.227C573.641 174.733 567.014 158.557 567.014 139.697C567.014 120.676 573.641 104.499 586.894 91.1676ZM604.591 122.383H665.926C662.855 116.855 658.572 112.465 653.077 109.214C647.582 105.962 641.602 104.337 635.137 104.337C628.672 104.337 622.692 105.962 617.197 109.214C611.702 112.465 607.5 116.855 604.591 122.383Z" fill="black"/>
<path d="M561.04 35.3206V52.6352L486.129 172.862H561.04V206.028H435.946V188.714L510.857 68.4867H435.946V35.3206H561.04Z" fill="black"/>
<path d="M13.6434 44.6169C23.8934 16.4965 51.6815 -1.29793 81.5109 1.15714L141.325 6.08005C167.73 8.25333 194.27 8.25332 220.675 6.08005L280.489 1.15714C310.319 -1.29793 338.107 16.4965 348.357 44.6169C366.211 93.5997 366.211 147.311 348.357 196.294L347.852 197.677C337.806 225.239 311.14 243.185 281.823 242.112L181 238.424L80.1768 242.112C50.8604 243.185 24.194 225.239 14.1476 197.677L13.6434 196.294C-4.21098 147.311 -4.21097 93.5997 13.6434 44.6169Z" fill="#3C82F6"/>
<path d="M289.785 96.1505C289.785 93.2209 290.27 90.6169 291.241 88.3383C292.292 86.0598 293.668 84.1068 295.366 82.4793C297.065 80.8517 299.007 79.6311 301.191 78.8173C303.456 77.9222 305.802 77.4746 308.229 77.4746C310.656 77.4746 312.961 77.9222 315.146 78.8173C317.411 79.6311 319.393 80.8517 321.091 82.4793C322.79 84.1068 324.125 86.0598 325.096 88.3383C326.147 90.6169 326.673 93.2209 326.673 96.1505V147.173C326.673 150.103 326.147 152.707 325.096 154.986C324.125 157.264 322.79 159.217 321.091 160.845C319.393 162.472 317.411 163.733 315.146 164.629C312.961 165.442 310.656 165.849 308.229 165.849C305.802 165.849 303.456 165.442 301.191 164.629C299.007 163.733 297.065 162.472 295.366 160.845C293.668 159.217 292.292 157.264 291.241 154.986C290.27 152.707 289.785 150.103 289.785 147.173V96.1505ZM302.162 147.173C302.162 148.964 302.728 150.469 303.861 151.69C304.993 152.829 306.449 153.399 308.229 153.399C310.009 153.399 311.465 152.829 312.597 151.69C313.73 150.469 314.296 148.964 314.296 147.173V96.1505C314.296 94.3602 313.73 92.8954 312.597 91.7561C311.465 90.5355 310.009 89.9252 308.229 89.9252C306.449 89.9252 304.993 90.5355 303.861 91.7561C302.728 92.8954 302.162 94.3602 302.162 96.1505V147.173Z" fill="white"/>
<path d="M247.064 96.1505C247.064 93.2209 247.55 90.6169 248.521 88.3383C249.572 86.0598 250.947 84.1068 252.646 82.4793C254.345 80.8517 256.287 79.6311 258.471 78.8173C260.736 77.9222 263.082 77.4746 265.509 77.4746C267.936 77.4746 270.241 77.9222 272.425 78.8173C274.69 79.6311 276.672 80.8517 278.371 82.4793C280.07 84.1068 281.405 86.0598 282.376 88.3383C283.427 90.6169 283.953 93.2209 283.953 96.1505V147.173C283.953 150.103 283.427 152.707 282.376 154.986C281.405 157.264 280.07 159.217 278.371 160.845C276.672 162.472 274.69 163.733 272.425 164.629C270.241 165.442 267.936 165.849 265.509 165.849C263.082 165.849 260.736 165.442 258.471 164.629C256.287 163.733 254.345 162.472 252.646 160.845C250.947 159.217 249.572 157.264 248.521 154.986C247.55 152.707 247.064 150.103 247.064 147.173V96.1505ZM259.442 147.173C259.442 148.964 260.008 150.469 261.14 151.69C262.273 152.829 263.729 153.399 265.509 153.399C267.288 153.399 268.745 152.829 269.877 151.69C271.01 150.469 271.576 148.964 271.576 147.173V96.1505C271.576 94.3602 271.01 92.8954 269.877 91.7561C268.745 90.5355 267.288 89.9252 265.509 89.9252C263.729 89.9252 262.273 90.5355 261.14 91.7561C260.008 92.8954 259.442 94.3602 259.442 96.1505V147.173Z" fill="white"/>
<path d="M227.946 138.954V126.506H240.32V138.954H227.946ZM227.946 119.968V107.52H240.32V119.968H227.946Z" fill="white"/>
<path d="M184.254 96.1505C184.254 93.2209 184.739 90.6169 185.71 88.3383C186.762 86.0598 188.137 84.1068 189.836 82.4793C191.535 80.8517 193.476 79.6311 195.66 78.8173C197.925 77.9222 200.271 77.4746 202.698 77.4746C205.125 77.4746 207.431 77.9222 209.615 78.8173C211.88 79.6311 213.862 80.8517 215.561 82.4793C217.259 84.1068 218.594 86.0598 219.565 88.3383C220.617 90.6169 221.142 93.2209 221.142 96.1505V147.173C221.142 150.103 220.617 152.707 219.565 154.986C218.594 157.264 217.259 159.217 215.561 160.845C213.862 162.472 211.88 163.733 209.615 164.629C207.431 165.442 205.125 165.849 202.698 165.849C200.271 165.849 197.925 165.442 195.66 164.629C193.476 163.733 191.535 162.472 189.836 160.845C188.137 159.217 186.762 157.264 185.71 154.986C184.739 152.707 184.254 150.103 184.254 147.173V96.1505ZM196.631 147.173C196.631 148.964 197.197 150.469 198.33 151.69C199.462 152.829 200.918 153.399 202.698 153.399C204.478 153.399 205.934 152.829 207.067 151.69C208.199 150.469 208.765 148.964 208.765 147.173V96.1505C208.765 94.3602 208.199 92.8954 207.067 91.7561C205.934 90.5355 204.478 89.9252 202.698 89.9252C200.918 89.9252 199.462 90.5355 198.33 91.7561C197.197 92.8954 196.631 94.3602 196.631 96.1505V147.173Z" fill="white"/>
<path d="M141.532 96.1505C141.532 93.2209 142.018 90.6169 142.988 88.3383C144.04 86.0598 145.415 84.1068 147.114 82.4793C148.813 80.8517 150.754 79.6311 152.939 78.8173C155.204 77.9222 157.55 77.4746 159.977 77.4746C162.403 77.4746 164.709 77.9222 166.893 78.8173C169.158 79.6311 171.14 80.8517 172.839 82.4793C174.538 84.1068 175.873 86.0598 176.843 88.3383C177.895 90.6169 178.421 93.2209 178.421 96.1505V147.173C178.421 150.103 177.895 152.707 176.843 154.986C175.873 157.264 174.538 159.217 172.839 160.845C171.14 162.472 169.158 163.733 166.893 164.629C164.709 165.442 162.403 165.849 159.977 165.849C157.55 165.849 155.204 165.442 152.939 164.629C150.754 163.733 148.813 162.472 147.114 160.845C145.415 159.217 144.04 157.264 142.988 154.986C142.018 152.707 141.532 150.103 141.532 147.173V96.1505ZM153.909 147.173C153.909 148.964 154.476 150.469 155.608 151.69C156.741 152.829 158.197 153.399 159.977 153.399C161.756 153.399 163.212 152.829 164.345 151.69C165.478 150.469 166.044 148.964 166.044 147.173V96.1505C166.044 94.3602 165.478 92.8954 164.345 91.7561C163.212 90.5355 161.756 89.9252 159.977 89.9252C158.197 89.9252 156.741 90.5355 155.608 91.7561C154.476 92.8954 153.909 94.3602 153.909 96.1505V147.173Z" fill="white"/>
<path d="M122.414 138.954V126.506H134.788V138.954H122.414ZM122.414 119.968V107.52H134.788V119.968H122.414Z" fill="white"/>
<path d="M78.7231 96.1505C78.7231 93.2209 79.2085 90.6169 80.1792 88.3383C81.2309 86.0598 82.6061 84.1068 84.3049 82.4793C86.0038 80.8517 87.9453 79.6311 90.1295 78.8173C92.3946 77.9222 94.7406 77.4746 97.1674 77.4746C99.5943 77.4746 101.9 77.9222 104.084 78.8173C106.349 79.6311 108.331 80.8517 110.03 82.4793C111.729 84.1068 113.064 86.0598 114.034 88.3383C115.086 90.6169 115.612 93.2209 115.612 96.1505V147.173C115.612 150.103 115.086 152.707 114.034 154.986C113.064 157.264 111.729 159.217 110.03 160.845C108.331 162.472 106.349 163.733 104.084 164.629C101.9 165.442 99.5943 165.849 97.1674 165.849C94.7406 165.849 92.3946 165.442 90.1295 164.629C87.9453 163.733 86.0038 162.472 84.3049 160.845C82.6061 159.217 81.2309 157.264 80.1792 154.986C79.2085 152.707 78.7231 150.103 78.7231 147.173V96.1505ZM91.1002 147.173C91.1002 148.964 91.6665 150.469 92.799 151.69C93.9316 152.829 95.3877 153.399 97.1674 153.399C98.9472 153.399 100.403 152.829 101.536 151.69C102.668 150.469 103.235 148.964 103.235 147.173V96.1505C103.235 94.3602 102.668 92.8954 101.536 91.7561C100.403 90.5355 98.9472 89.9252 97.1674 89.9252C95.3877 89.9252 93.9316 90.5355 92.799 91.7561C91.6665 92.8954 91.1002 94.3602 91.1002 96.1505V147.173Z" fill="white"/>
<path d="M36 96.1505C36 93.2209 36.4854 90.6169 37.4562 88.3383C38.5078 86.0598 39.883 84.1068 41.5819 82.4793C43.2807 80.8517 45.2222 79.6311 47.4064 78.8173C49.6715 77.9222 52.0175 77.4746 54.4444 77.4746C56.8712 77.4746 59.1768 77.9222 61.361 78.8173C63.6261 79.6311 65.608 80.8517 67.3068 82.4793C69.0057 84.1068 70.3404 86.0598 71.3112 88.3383C72.3629 90.6169 72.8887 93.2209 72.8887 96.1505V147.173C72.8887 150.103 72.3629 152.707 71.3112 154.986C70.3404 157.264 69.0057 159.217 67.3068 160.845C65.608 162.472 63.6261 163.733 61.361 164.629C59.1768 165.442 56.8712 165.849 54.4444 165.849C52.0175 165.849 49.6715 165.442 47.4064 164.629C45.2222 163.733 43.2807 162.472 41.5819 160.845C39.883 159.217 38.5078 157.264 37.4562 154.986C36.4854 152.707 36 150.103 36 147.173V96.1505ZM48.3771 147.173C48.3771 148.964 48.9434 150.469 50.076 151.69C51.2085 152.829 52.6646 153.399 54.4444 153.399C56.2241 153.399 57.6802 152.829 58.8127 151.69C59.9453 150.469 60.5116 148.964 60.5116 147.173V96.1505C60.5116 94.3602 59.9453 92.8954 58.8127 91.7561C57.6802 90.5355 56.2241 89.9252 54.4444 89.9252C52.6646 89.9252 51.2085 90.5355 50.076 91.7561C48.9434 92.8954 48.3771 94.3602 48.3771 96.1505V147.173Z" fill="white"/>
</svg>
